<svg width="14" height="20" viewBox="0 0 14 20" fill="none" xmlns="http://www.w3.org/2000/svg">
<path d="M13.7069 9.80076L4.95694 19.1758C4.86416 19.2752 4.74149 19.3417 4.60752 19.3651C4.47355 19.3885 4.3356 19.3675 4.21461 19.3055C4.09361 19.2434 3.99617 19.1435 3.93706 19.021C3.87796 18.8985 3.86041 18.7601 3.88709 18.6268L5.03288 12.8979L0.530532 11.2096C0.434307 11.1735 0.348459 11.1143 0.280593 11.0371C0.212726 10.9599 0.164934 10.8672 0.141449 10.7672C0.117963 10.6671 0.119509 10.5628 0.14595 10.4635C0.17239 10.3642 0.222909 10.273 0.293032 10.1979L9.04303 0.822867C9.13581 0.723415 9.2585 0.656942 9.39248 0.633534C9.52645 0.610125 9.66441 0.63106 9.78542 0.693161C9.90642 0.755262 10.0039 0.855139 10.063 0.977638C10.1221 1.10014 10.1396 1.23857 10.1129 1.37193L8.96709 7.10084L13.4694 8.78912C13.5657 8.82519 13.6515 8.88443 13.7194 8.96159C13.7872 9.03876 13.835 9.13147 13.8585 9.23152C13.882 9.33156 13.8805 9.43585 13.854 9.53516C13.8276 9.63446 13.7771 9.72571 13.7069 9.80084V9.80076Z" fill="black"/>
</svg>
